<?xml version="1.0" encoding="utf-8"?>
<svg viewBox="0 0 500 500" xmlns="http://www.w3.org/2000/svg">
  <g transform="matrix(0.1, 0, 0, -0.1, 36.735825, 400.347107)" fill="#000000" stroke="none">
    <path d="M2207 2559 c-87 -35 -161 -90 -272 -203 -71 -72 -128 -120 -159 -135 -64 -32 -306 -73 -426 -74 -99 -1 -105 0 -390 93 -47 16 -114 31 -150 35 -35 4 -84 17 -110 28 -25 11 -63 23 -85 28 -125 24 -110 26 -184 -25 -37 -26 -74 -44 -82 -41 -8 3 -27 31 -44 62 -41 78 -71 98 -148 98 -61 0 -62 -1 -80 -35 -15 -29 -17 -51 -13 -125 6 -120 34 -202 94 -279 59 -75 149 -205 185 -268 15 -26 56 -81 90 -122 34 -41 73 -88 87 -106 21 -26 35 -33 92 -43 56 -9 79 -8 140 6 83 20 299 23 360 7 20 -6 63 -28 95 -50 35 -23 83 -44 121 -53 68 -16 250 -119 376 -214 157 -117 419 -390 526 -548 32 -47 34 -55 42 -173 10 -142 10 -139 -67 -183 -49 -28 -122 -103 -125 -130 -8 -53 4 -58 142 -60 122 -1 169 17 226 90 l40 51 -34 82 c-52 124 -43 152 74 250 25 21 32 34 32 62 0 62 27 105 118 193 108 105 149 129 236 143 75 12 232 67 308 107 39 21 50 34 68 79 25 62 37 66 125 46 103 -23 138 -9 197 76 17 25 58 62 96 86 77 49 168 142 177 179 10 37 -2 64 -49 115 -26 29 -66 56 -111 77 -79 36 -113 70 -177 177 -57 97 -103 141 -300 285 -138 101 -183 128 -260 158 -51 19 -133 55 -183 79 -49 25 -106 48 -125 52 -19 3 -64 21 -100 39 -36 18 -83 38 -105 45 -22 7 -66 23 -97 36 -69 29 -107 29 -171 3z" style="fill: rgba(240, 245, 249, 0.86);"/>
  </g>
</svg>